<?xml version="1.0" encoding="UTF-8" standalone="no"?>
<!-- Created with Inkscape (http://www.inkscape.org/) -->

<svg
   version="1.1"
   id="svg1"
   width="436.89453"
   height="453.996"
   viewBox="0 0 436.89453 453.996"
   xmlns="http://www.w3.org/2000/svg"
   xmlns:svg="http://www.w3.org/2000/svg">
  <defs
     id="defs1" />
  <g
     id="g1"
     transform="translate(-28.11165,-25.543558)">
    <g
       id="g14"
       transform="translate(11.879345,-2.8864741)">
      <path
         style="fill:#d5c23c"
         d="m 376.34641,480.70282 c -4.125,-1.25595 -9.525,-3.04098 -12,-3.96674 -4.37638,-1.63695 -29.93414,-10.52393 -64.5,-22.42802 -56.88734,-19.59135 -74.13777,-25.55695 -92.5,-31.98865 -11.275,-3.94927 -25,-8.74239 -30.5,-10.65137 -10.63386,-3.69089 -28.22863,-9.93852 -61.5,-21.8377 -11.275,-4.0324 -22.975005,-8.16706 -26.000005,-9.18815 l -5.5,-1.85652 -9.323185,-16.98924 c -5.127752,-9.34408 -11.255729,-20.58924 -13.617728,-24.98924 -2.361998,-4.4 -9.304064,-16.94911 -15.426814,-27.88692 -6.12275,-10.9378 -11.132273,-20.0701 -11.132273,-20.29399 0,-0.2239 -2.861594,-5.44979 -6.359098,-11.61309 -3.497504,-6.1633 -7.573176,-13.6042 -9.057049,-16.53534 l -2.697952,-5.32934 10.356393,-10.17066 C 46.437141,225.48537 137.97362,137.56061 155.34641,121.30048 c 9.625,-9.00855 22.9,-21.614697 29.5,-28.013653 6.6,-6.398956 16.27435,-15.649629 21.49856,-20.557051 5.22421,-4.907423 17.40824,-16.656817 27.07561,-26.109766 11.05754,-10.812269 18.63011,-17.451481 20.41617,-17.899752 2.84032,-0.712876 133.27845,0.0224 134.01147,0.755416 0.42761,0.427602 18.57347,90.349106 21.45735,106.331516 0.99243,5.5 4.56852,23.95 7.94686,41 6.2579,31.58264 18.66315,94.52153 21.4839,109 0.85723,4.4 3.61706,17.9 6.13297,30 2.5159,12.1 5.1937,25.375 5.95066,29.5 0.75696,4.125 1.65387,8.85 1.99314,10.5 0.50157,2.43933 -0.43809,4.86889 -5.02791,13 -5.62231,9.96022 -9.19471,16.39364 -23.87737,43 -4.24922,7.7 -8.34489,14.96772 -9.10149,16.15048 -0.75659,1.18277 -3.70205,6.58277 -6.54547,12 -2.84342,5.41724 -6.62634,12.32452 -8.40649,15.34952 -1.78015,3.025 -5.80369,10.3301 -8.94119,16.23356 -6.82495,12.84167 -5.40823,11.9506 -14.56677,9.16207 z m 9.16323,-133.28677 c -0.50483,-3.58441 -10.98452,-29.28561 -31.64508,-77.60886 -5.8788,-13.75 -11.94847,-28.15 -13.48817,-32 -1.53969,-3.85 -4.69712,-11.5 -7.01652,-17 -2.3194,-5.5 -6.59011,-15.85 -9.49045,-23 -2.90035,-7.15 -6.49541,-15.7 -7.98904,-19 -1.49362,-3.3 -3.3015,-7.8 -4.01751,-10 -2.02311,-6.21623 -31.27161,-72.657278 -32.53088,-73.897323 -1.269,-1.249632 -1.70023,-0.731629 -12.36136,14.848863 -10.19536,14.89979 -26.33088,38.53895 -35.55864,52.09475 -4.47544,6.57454 -10.50937,15.32871 -13.40872,19.45371 -5.14398,7.3185 -13.69536,19.86529 -38.50811,56.5 -6.70528,9.9 -15.16786,22.275 -18.80571,27.5 -3.63786,5.225 -10.45793,15.125 -15.15572,22 -4.69779,6.875 -10.45795,15.30475 -12.80035,18.73277 -2.34241,3.42803 -5.48197,7.83629 -6.97682,9.79613 -3.52308,4.61899 -3.01616,4.9359 10.08985,6.30767 19.74004,2.06614 92.13917,10.41363 136,15.68056 7.15,0.85859 20.875,2.41765 30.5,3.46457 9.625,1.04692 25.825,2.8659 36,4.04217 49.76882,5.75349 47.66681,5.66057 47.16323,2.08499 z"
         id="path18" />
      <path
         style="fill:#e5742f"
         d="m 376.34641,480.32142 c -3.575,-0.99287 -9.2,-2.79143 -12.5,-3.99678 -8.67287,-3.16785 -46.65276,-16.33804 -87,-30.16879 -19.25,-6.59876 -38.15,-13.11881 -42,-14.489 -3.85,-1.37018 -12.175,-4.22471 -18.5,-6.34338 -6.325,-2.11867 -19.6,-6.754 -29.5,-10.30073 -9.9,-3.54673 -34.875,-12.39811 -55.5,-19.66974 -20.625,-7.27162 -39.300005,-13.86099 -41.500005,-14.64303 -5.894088,-2.09518 -5.258229,-1.23202 -17.976492,-24.40278 -6.490656,-11.825 -15.186624,-27.575 -19.324373,-35 -27.462788,-49.28071 -35.199135,-63.63689 -35.199135,-65.3183 0,-2.20862 3.336472,-5.11759 11,-9.59057 5.687709,-3.31975 53.731975,-32.36473 67.5,-40.80687 2.75,-1.68622 11.525005,-7.00241 19.500005,-11.81376 14.58967,-8.80201 18.19925,-11.00268 47.5,-28.95953 8.8,-5.39305 20.95,-12.83448 27,-16.53652 6.05,-3.70203 17.75,-10.89853 26,-15.99222 8.25,-5.09369 17.475,-10.71363 20.5,-12.48875 12.06979,-7.08275 32.68613,-19.918162 35.77721,-22.274328 4.96196,-3.782236 4.72998,-2.308147 -0.92212,5.859528 -2.82458,4.08173 -11.09557,16.19632 -18.37996,26.92132 -7.2844,10.725 -17.119,25.125 -21.85467,32 -18.33903,26.62365 -31.29613,45.57991 -48.5304,71 -8.38997,12.375 -18.06132,26.55 -21.49189,31.5 -3.43056,4.95 -10.0552,14.625 -14.72142,21.5 -4.66623,6.875 -11.72241,17.09683 -15.6804,22.71517 -7.61455,10.8088 -8.24453,12.2387 -5.44635,12.36184 3.1334,0.1379 10.51211,0.91032 23.25,2.43386 6.875,0.8223 20.6,2.40085 30.5,3.50789 9.9,1.10704 25.2,2.90591 34,3.99748 23.51772,2.91719 74.3313,8.74723 87,9.98185 6.05,0.5896 14.15,1.49923 18,2.02141 3.85,0.52217 11.5,1.39845 17,1.94729 5.5,0.54883 18.1,1.91845 28,3.0436 9.9,1.12514 19.125,2.14559 20.5,2.26766 3.81537,0.33873 3.02706,-3.397 -4.59559,-21.77805 -3.64937,-8.8 -8.3471,-20.275 -10.4394,-25.5 -2.09229,-5.225 -8.3964,-20.075 -14.00912,-33 -5.61273,-12.925 -11.68767,-27.325 -13.49987,-32 -1.8122,-4.675 -4.96034,-12.325 -6.99586,-17 -2.03553,-4.675 -5.37541,-12.775 -7.42197,-18 -6.49167,-16.57364 -36.23323,-86.05793 -44.69777,-104.426021 -3.02271,-6.559312 -7.00127,-15.559312 -8.84123,-20 C 271.00564,74.44048 267.52541,66.53219 265.11177,61.30719 254.77109,38.921952 252.10026,32.391027 252.67448,30.894616 253.22252,29.466458 260.0407,29.30719 320.6313,29.30719 h 67.34767 l 10.74301,54.25 c 5.90865,29.8375 11.85152,59.875 13.20638,66.75 1.35485,6.875 4.24832,21.5 6.42993,32.5 2.18161,11 7.38309,37.55 11.55884,59 4.17575,21.45 9.55207,48.45 11.94736,60 2.3953,11.55 5.53012,27.075 6.96628,34.5 1.43615,7.425 3.05742,15.45719 3.60282,17.84932 1.09375,4.79722 1.39289,4.0977 -10.54141,24.65068 -4.7861,8.24251 -13.74341,24.33344 -19.76172,35.5 -6.68991,12.41264 -21.14588,38.62205 -21.78649,39.5 -0.40132,0.55 -3.09593,5.5 -5.98802,11 -8.40016,15.97489 -9.31807,17.50506 -10.44369,17.40973 -0.58622,-0.0496 -3.99085,-0.90262 -7.56585,-1.8955 z"
         id="path17" />
      <path
         style="fill:#962033"
         d="m 383.65857,480.30719 c 0.5195,-2.31726 2.34643,-124.18934 1.97875,-132 -0.0906,-1.925 -2.17924,-8.45 -4.64139,-14.5 -9.41932,-23.14519 -16.53566,-40.29692 -19.91547,-48 -6.9501,-15.84031 -18.10712,-42.1402 -20.78693,-49 -1.50402,-3.85 -4.38392,-10.825 -6.39977,-15.5 -2.01586,-4.675 -6.14801,-14.7379 -9.18257,-22.36201 -3.03455,-7.62411 -7.05804,-17.24278 -8.94108,-21.37484 -1.88304,-4.13206 -3.4237,-7.94966 -3.4237,-8.48355 0,-0.53389 -2.64915,-6.89021 -5.887,-14.12516 -3.23785,-7.23494 -10.0384,-22.82944 -15.11233,-34.65444 -5.07394,-11.825 -9.83277,-22.68225 -10.5752,-24.127222 l -1.34985,-2.627222 12.21219,-7.298483 c 6.7167,-4.014165 23.68719,-14.25374 37.71219,-22.754612 14.025,-8.500871 30.45,-18.39459 36.5,-21.986043 6.05,-3.591452 12.98965,-7.807127 15.42144,-9.368166 2.43179,-1.561039 4.93662,-2.838252 5.56628,-2.838252 1.00605,0 5.8847,23.523994 25.09423,121 1.35485,6.875 4.24832,21.5 6.42993,32.5 2.18161,11 7.38309,37.55 11.55884,59 4.17575,21.45 9.55207,48.45 11.94736,60 2.3953,11.55 5.53012,27.075 6.96628,34.5 1.43615,7.425 3.06375,15.48232 3.61688,17.90515 0.98847,4.32973 0.89033,4.60367 -5.73169,16 -3.70555,6.37717 -8.60028,14.96985 -10.87717,19.09485 -2.27688,4.125 -5.05598,9.08876 -6.17577,11.03059 -1.11979,1.94182 -3.96534,7.11682 -6.32346,11.5 -2.35811,4.38317 -7.37126,13.47968 -11.14032,20.21446 -3.76906,6.73478 -6.85283,12.48122 -6.85283,12.76987 0,0.28865 -1.11658,2.29359 -2.48128,4.45543 -1.36471,2.16183 -5.67022,9.91538 -9.56781,17.23012 -7.34335,13.78153 -10.71778,18.61261 -9.63875,13.79953 z m -18.31216,-3.59885 c -3.575,-1.34879 -15.5,-5.54062 -26.5,-9.31518 -11,-3.77455 -37.1,-12.72539 -58,-19.89075 -20.9,-7.16536 -40.7,-14.00259 -44,-15.19386 -3.3,-1.19126 -15.675,-5.55045 -27.5,-9.68709 -11.825,-4.13664 -28.925,-10.12833 -38,-13.31487 -9.075,-3.18653 -21.225,-7.44956 -27,-9.4734 -5.775,-2.02384 -18.6,-6.61915 -28.5,-10.2118 -9.9,-3.59265 -20.700005,-7.38102 -24.000005,-8.41861 -8.142419,-2.56014 -6.795068,-0.88102 -19.976492,-24.89559 -6.490656,-11.825 -15.186624,-27.575 -19.324373,-35 -27.462788,-49.28071 -35.199135,-63.63689 -35.199135,-65.3183 0,-2.20862 3.336472,-5.11759 11,-9.59057 5.687709,-3.31975 53.731975,-32.36473 67.5,-40.80687 2.75,-1.68622 11.525005,-7.00241 19.500005,-11.81376 7.975,-4.81135 18.325,-11.08928 23,-13.95095 26.47733,-16.20737 41.91683,-25.67054 53.5,-32.79121 18.14381,-11.15377 33.87333,-20.75323 57.3072,-34.97361 5.66896,-3.4401 13.68614,-8.43755 17.81596,-11.10544 10.17103,-6.570548 10.09016,-5.913977 -1.29887,10.54543 -5.44417,7.8679 -13.69258,19.93028 -18.3298,26.80528 -4.63722,6.875 -12.15574,17.9 -16.70782,24.5 -16.69958,24.21248 -30.598,44.54251 -48.19661,70.5 -8.38997,12.375 -18.06132,26.55 -21.49189,31.5 -3.43056,4.95 -10.0552,14.625 -14.72142,21.5 -4.66623,6.875 -11.72241,17.09683 -15.6804,22.71517 -3.958,5.61835 -7.19548,10.56835 -7.19442,11 0.003,1.12054 7.63234,6.02512 43.99807,28.2836 16.44708,10.06681 50.85142,31.42555 68.5,42.52585 7.15,4.49708 13.46618,8.35626 14.03597,8.57595 0.56979,0.21968 4.39479,2.56436 8.5,5.2104 6.7258,4.33514 14.43189,9.23325 40.78143,25.92133 4.57458,2.89723 13.57458,8.65955 20,12.80514 6.42543,4.14559 13.13006,8.42059 14.89919,9.5 1.76912,1.07941 7.61912,4.94457 13,8.58926 12.80239,8.67158 24.4063,16.19984 26.28341,17.05187 4.00045,1.81583 -2.02337,0.47747 -8,-1.77742 z"
         id="path16" />
      <path
         style="fill:#1e2893"
         d="m 81.136705,373.12338 c -1.362528,-2.37391 -6.662447,-11.96619 -11.777598,-21.31619 -5.115152,-9.35 -12.683482,-23.075 -16.818511,-30.5 -32.487732,-58.33608 -35.428549,-63.93463 -34.818975,-66.2862 0.66618,-2.56995 3.583191,-4.50259 31.878139,-21.1206 21.721667,-12.75743 31.690253,-18.73892 39.246645,-23.54933 4.95,-3.15117 12.825005,-7.98546 17.500005,-10.74287 4.675,-2.75741 14.575,-8.73112 22,-13.2749 7.425,-4.54379 17.55,-10.71131 22.5,-13.70561 4.95,-2.99429 12.825,-7.81442 17.5,-10.71139 4.675,-2.89697 14.46622,-8.938 21.75828,-13.4245 7.29206,-4.48651 19.21706,-11.82504 26.5,-16.30785 7.28294,-4.4828 15.71672,-9.6041 18.74172,-11.38066 8.99139,-5.28056 31.2007,-18.99059 35.4057,-21.85629 6.07513,-4.140187 5.51768,-2.762864 -5.08141,12.55492 -5.44417,7.8679 -13.69258,19.93028 -18.3298,26.80528 -4.63722,6.875 -12.15574,17.9 -16.70782,24.5 -16.69958,24.21248 -30.598,44.54251 -48.19661,70.5 -8.38997,12.375 -18.06132,26.55 -21.49189,31.5 -3.43056,4.95 -10.0552,14.625 -14.72142,21.5 -4.66623,6.875 -11.72241,17.09683 -15.6804,22.71517 -3.958,5.61835 -7.19635,10.48774 -7.19635,10.82087 0,0.5017 -4.57395,7.45023 -16.9734,25.78525 -2.87259,4.24768 -21.312422,30.19138 -22.030045,30.9949 -0.400916,0.4489 -1.843733,-1.1261 -3.20626,-3.5 z M 451.21781,357.84526 c -0.25406,-0.25405 -7.41656,-1.17388 -15.91666,-2.04405 -8.50011,-0.87018 -21.52974,-2.45987 -28.95474,-3.53266 -7.425,-1.07279 -14.9625,-1.95296 -16.75,-1.95594 -2.3921,-0.004 -3.27374,-0.46737 -3.33991,-1.75542 -0.51227,-9.97113 0.42667,-212.2926 1.12424,-242.25 0.50587,-21.725 0.96562,-46.475 1.02166,-55 0.0686,-10.441143 0.3944,-14.684056 0.99809,-13 0.92081,2.568673 17.68287,85.77271 20.34719,101 0.81799,4.675 3.94223,20.65 6.94277,35.5 3.00054,14.85 8.91151,44.775 13.1355,66.5 4.22398,21.725 9.68041,49.175 12.12539,61 6.42693,31.08347 8.16178,39.72145 9.40181,46.81235 0.60713,3.47179 1.35213,6.95929 1.65555,7.75 0.51252,1.3356 -0.74557,2.02104 -1.79089,0.97572 z"
         id="path15" />
      <path
         style="fill:#19195e"
         d="m 78.80064,368.65274 c -2.615069,-4.86505 -6.210699,-11.32055 -7.990289,-14.34555 -1.779589,-3.025 -5.238687,-9.325 -7.686884,-14 -2.448197,-4.675 -9.924571,-18.31729 -16.614165,-30.3162 -6.689593,-11.9989 -12.162897,-21.94767 -12.162897,-22.10836 0,-0.16069 -3.825,-7.14347 -8.5,-15.51729 -10.993976,-19.69231 -11.608963,-17.34819 7.5,-28.58751 6.325,-3.72018 13.075,-7.7619 15,-8.98159 1.925,-1.21969 9.8,-5.92971 17.5,-10.4667 7.7,-4.53699 18.05,-10.8273 23,-13.97848 4.95,-3.15117 12.825005,-7.98546 17.500005,-10.74287 4.675,-2.75741 14.575,-8.73112 22,-13.2749 7.425,-4.54379 17.55,-10.71131 22.5,-13.70561 4.95,-2.99429 12.825,-7.81808 17.5,-10.71953 4.675,-2.90144 13.675,-8.44383 20,-12.31642 6.325,-3.87258 18.25,-11.20862 26.5,-16.30231 8.25,-5.09369 17.475,-10.70342 20.5,-12.46605 11.38147,-6.63188 34.5193,-20.862502 35,-21.526307 0.275,-0.379756 1.5125,-1.223665 2.75,-1.875353 2.44474,-1.287442 3.08172,-0.04968 0.90437,1.757358 -0.74009,0.614223 -3.91892,4.944322 -7.06406,9.622442 -3.14514,4.67813 -5.91842,8.50568 -6.16285,8.50568 -0.58876,0 1.3377,-3.32795 5.32254,-9.19465 1.7875,-2.63166 3.25,-4.99166 3.25,-5.24445 0,-0.54599 -14.27481,7.53058 -15,8.48688 -0.60177,0.79353 -16.95665,10.95222 -17.63243,10.95222 -0.2607,0 -3.71256,2.12752 -7.67079,4.72783 -3.95823,2.6003 -9.22178,5.75986 -11.69678,7.02123 -2.475,1.26137 -7.425,4.33284 -11,6.8255 -3.575,2.49266 -8.62721,5.63547 -11.22712,6.98402 -4.66064,2.41744 -19.1296,11.46434 -21.48068,13.43107 -0.66429,0.55569 -1.47779,1.01035 -1.80779,1.01035 -0.33,0 -4.9615,2.7565 -10.29221,6.12555 -5.33071,3.36905 -11.07188,6.91485 -12.75816,7.87954 -1.68627,0.9647 -7.08627,4.20721 -12,7.20559 -4.91372,2.99837 -11.18404,6.72612 -13.93404,8.28389 -2.75,1.55776 -5.2442,3.19684 -5.54266,3.64239 -0.48861,0.72942 -3.1586,2.32665 -12.45734,7.45221 -1.65,0.90949 -9.384785,5.649 -17.188406,10.53223 -7.803621,4.88323 -14.432383,8.8786 -14.730583,8.8786 -0.298199,0 -3.138419,1.67758 -6.311598,3.72796 -3.17318,2.05038 -7.689558,4.76542 -10.036396,6.03342 -2.346838,1.26801 -7.974427,4.69717 -12.505753,7.62037 -4.531326,2.9232 -11.386186,7.0421 -15.233022,9.15312 -10.760741,5.90514 -11.388613,6.97429 -6.252593,10.64704 5.65321,4.04258 22.211127,13.80552 23.425013,13.81193 0.641667,0.003 1.316667,0.3917 1.5,0.86291 0.336127,0.86394 11.504156,7.97254 17.654002,11.23702 1.826368,0.96948 6.326368,3.75205 10,6.1835 7.05095,4.66677 33.732896,20.80649 40.922786,24.7539 l 4.24346,2.32975 2.64796,-2.43046 c 1.45639,-1.33675 4.61703,-5.44616 7.02366,-9.13202 2.40663,-3.68586 4.87225,-7.00845 5.47917,-7.38354 0.91011,-0.56248 -6.01023,9.94588 -10.91875,16.57985 -0.70457,0.95225 -1.45483,2.58049 -1.66724,3.61831 -0.21241,1.03781 -3.59538,6.61194 -7.5177,12.38694 -3.92232,5.775 -7.88309,11.625 -8.80171,13 -2.71568,4.06486 -21.439753,30.42523 -22.265103,31.34555 -0.417063,0.46505 -2.897898,-3.13495 -5.512967,-8 z m 372.41717,-10.80748 c -0.25406,-0.25405 -7.41656,-1.17388 -15.91666,-2.04405 -8.50011,-0.87018 -21.52974,-2.45987 -28.95474,-3.53266 -7.425,-1.07279 -14.9625,-1.95296 -16.75,-1.95594 -2.67518,-0.004 -3.26601,-0.40338 -3.3405,-2.25542 -0.53132,-13.2105 0.35892,-204.25358 1.1475,-246.25 1.4022,-74.675732 0.91114,-68.578104 4.22799,-52.5 4.37502,21.207455 13.66639,67.63264 15.41051,77 0.87044,4.675 4.00445,20.65 6.96446,35.5 2.96002,14.85 6.73843,34.2 8.39648,43 1.65804,8.8 5.24133,27.025 7.96285,40.5 2.72152,13.475 5.60012,28.1 6.39687,32.5 0.79676,4.4 3.97294,20.15 7.05819,35 3.08525,14.85 6.2571,30.33106 7.04856,34.40236 0.79146,4.0713 1.70291,8.2338 2.02544,9.25 0.53001,1.66991 -0.52279,2.53987 -1.67695,1.38571 z M 138.03987,295.19568 c 0.99359,-1.71132 2.36904,-3.33447 3.05654,-3.60698 0.6875,-0.27252 1.25,-0.87598 1.25,-1.34103 0,-1.14473 9.25021,-15.0236 9.70803,-14.56578 0.19962,0.19962 -1.67668,3.45947 -4.16956,7.24412 -2.49287,3.78465 -5.77134,8.78379 -7.28548,11.1092 -3.17033,4.86895 -5.26374,5.81809 -2.55953,1.16047 z m 15.53987,-21.93274 c 0.65027,-1.83921 9.73114,-14.95575 10.3542,-14.95575 0.49808,0 -6.08154,10.2749 -8.96501,14 -1.06434,1.375 -1.68948,1.80509 -1.38919,0.95575 z m 12.38931,-18.20575 c 2.93869,-4.95948 18.7724,-27.87612 19.62398,-28.40242 1.43651,-0.88781 0.97038,-0.146 -9.99259,15.90242 -5.16609,7.5625 -9.6132,13.75 -9.88247,13.75 -0.26928,0 -0.15629,-0.5625 0.25108,-1.25 z m 21.07767,-31.05251 c 2.99922,-4.88503 8.67746,-12.81294 9.57386,-13.36694 0.5925,-0.36619 -1.30801,2.78464 -4.22335,7.00183 -2.91534,4.21719 -5.49178,7.66762 -5.72541,7.66762 -0.23364,0 -0.0649,-0.58613 0.3749,-1.30251 z m 11.29969,-17.69749 c 0,-0.55 0.45,-1 1,-1 0.55,0 1,0.45 1,1 0,0.55 -0.45,1 -1,1 -0.55,0 -1,-0.45 -1,-1 z m 3.12802,-3.92572 c 0.75459,-1.05915 4.0181,-5.67165 7.25226,-10.25 3.23415,-4.57836 5.6316,-7.59105 5.32766,-6.69488 -0.70268,2.07186 -12.61267,18.8706 -13.37889,18.8706 -0.31515,0 0.0444,-0.86658 0.79897,-1.92572 z M 215.34641,182.517 c 0,-0.59965 2.16791,-3.92966 4.81759,-7.40004 2.64968,-3.47037 7.46793,-10.35977 10.70723,-15.30977 3.2393,-4.95 6.47433,-9.59759 7.18896,-10.32798 0.71462,-0.73038 1.78282,-2.23143 2.37378,-3.33564 0.59096,-1.10422 1.28273,-1.79942 1.53726,-1.54489 0.25454,0.25454 -4.19127,7.15558 -9.87957,15.33565 -14.15,20.34845 -16.74525,23.84841 -16.74525,22.58267 z m 27.56429,-40.50294 c 0.37553,-0.98622 0.93469,-1.54122 1.24258,-1.23333 0.30788,0.30789 6.3e-4,1.11479 -0.68279,1.79313 -0.98761,0.98026 -1.10248,0.8654 -0.55979,-0.5598 z m 2.46261,-3.32201 c 0.0148,-0.48667 1.25229,-2.25241 2.75,-3.92386 3.01632,-3.36625 2.74952,-2.50764 -0.59782,1.92386 -1.1985,1.58667 -2.16698,2.48667 -2.15218,2 z m 6.9731,-10.09575 c 0,-0.57432 0.7875,-1.66182 1.75,-2.41667 1.61875,-1.26951 1.63997,-1.22245 0.28296,0.62756 -0.80686,1.1 -1.59436,2.1875 -1.75,2.41667 -0.15563,0.22916 -0.28296,-0.0532 -0.28296,-0.62756 z m 3,-5.10055 c 0,-0.89212 3.78332,-5.18856 4.56889,-5.18856 0.27004,0 -0.50712,1.35 -1.72702,3 -2.31806,3.13534 -2.84187,3.53874 -2.84187,2.18856 z"
         id="path14" />
    </g>
  </g>
</svg>
