<?xml version="1.0" encoding="UTF-8" standalone="no"?>
<!-- Created with Inkscape (http://www.inkscape.org/) -->

<svg
   version="1.1"
   id="svg1"
   width="314.50699"
   height="307.58081"
   viewBox="0 0 314.50699 307.58081"
   xmlns="http://www.w3.org/2000/svg"
   xmlns:svg="http://www.w3.org/2000/svg">
  <defs
     id="defs1" />
  <g
     id="g1"
     transform="translate(-14.263521,-16.113184)">
    <g
       id="g41"
       transform="translate(2.0705384,-0.88681633)">
      <path
         style="fill:#cbcbcb"
         d="M 246,316.5543 C 231.975,311.93207 214.875,306.35582 208,304.16264 162.99983,289.80724 64.918561,257.44227 62.0954,256.01688 58.398569,254.15039 58.745917,254.70198 33.74756,211 26.039607,197.525 17.993153,183.60341 15.86655,180.06314 c -5.105081,-8.49872 -4.997144,-10.09056 1.001336,-14.76762 7.374886,-5.75024 23.825935,-20.10564 41.568845,-36.2735 C 90.182163,100.09465 98.876849,92.22752 116.48365,76.5 c 9.85151,-8.8 25.83786,-23.2 35.52522,-32 9.68736,-8.8 20.56078,-18.5875 24.16316,-21.75 L 182.7218,17 h 48.58009 c 26.71904,0 48.81969,0.387697 49.11254,0.86155 0.29286,0.473852 3.44626,14.761352 7.00755,31.75 11.05374,52.73025 22.17515,105.22701 31.11823,146.88845 5.32981,24.82897 8.41817,41.35297 8.14278,43.56726 -0.43944,3.53333 -4.11143,10.20669 -27.20019,49.43274 -6.47469,11 -13.346,22.7 -15.26958,26 -6.96541,11.94951 -5.29438,11.9034 -38.21322,1.0543 z m 29.65679,-84.52036 C 275.33052,230.4026 270.57434,218.97868 265.0875,206.64744 259.60065,194.3162 251.53742,175.96343 247.16921,165.8635 242.80099,155.76358 235.30332,138.95 230.50772,128.5 218.92563,103.26171 207.88178,79.061416 204.15339,70.75 c -3.15191,-7.026316 -5.48144,-8.5634 -6.54657,-4.319597 -0.66497,2.64945 -20.07768,29.998636 -52.93021,74.569597 -11.55379,15.675 -23.62767,32.1 -26.83084,36.5 -3.20317,4.4 -10.56963,14.48673 -16.3699,22.41496 -12.329848,16.85332 -12.779166,15.46815 5.52413,17.02993 7.975,0.68049 19.45,1.87828 25.5,2.66175 12.55408,1.62575 37.33227,4.42846 65,7.35227 10.45,1.10431 24.625,2.64304 31.5,3.41939 6.875,0.77636 17.9,1.95382 24.5,2.61658 6.6,0.66276 12.45,1.34952 13,1.52612 5.14702,1.65273 9.73549,0.40646 9.15679,-2.48706 z"
         id="path47" />
      <path
         style="fill:#929292"
         d="M 238.5,312.847 C 120.31724,274.4319 63.220234,255.61581 61.441089,254.49795 59.447576,253.2454 47.283115,233.08361 27.956818,199 22.811056,189.925 17.340688,180.4994 15.800444,178.05422 12.412042,172.67504 12.315599,170.96812 15.25,168.31203 17.757799,166.04209 18.396737,165.66777 64,139.75201 81.875,129.59388 118.42874,108.8121 145.23054,93.570293 172.03234,78.328483 194.42105,66.142191 194.98324,66.489644 196.7666,67.591821 185.33,84.119946 145.50178,138 c -38.58536,52.19871 -55.657944,76.15066 -55.175376,77.40821 0.58469,1.52368 3.947195,2.13448 19.673596,3.57373 6.325,0.57885 20.5,2.16017 31.5,3.51405 18.31725,2.25448 48.08709,5.54869 95,10.51233 9.9,1.04747 22.05,2.37042 27,2.93988 13.64165,1.56938 13.50188,1.59216 13.48872,-2.1982 -0.006,-1.79719 -2.71161,-9.28474 -6.05205,-16.75 C 267.61426,209.575 259.70251,191.575 253.355,177 240.50693,147.49851 210.02749,80.381922 188.38704,33.938716 185.42417,27.58001 183,21.634206 183,20.72582 c 0,-1.661052 94.10049,-3.26747 96.28216,-1.643662 0.43018,0.320186 2.57817,9.320186 4.7733,20 2.19512,10.679813 6.4532,30.892842 9.4624,44.917842 3.00919,14.025 7.64681,35.85 10.30582,48.5 2.65902,12.65 8.80904,41.69269 13.66673,64.53932 5.31385,24.992 8.58439,42.51953 8.21016,44 -0.56929,2.25217 -36.5207,64.46692 -44.32803,76.71068 -4.69064,7.35605 -5.41168,7.27359 -42.87254,-4.903 z"
         id="path46" />
      <path
         style="fill:#6f6f6f"
         d="m 276.42798,279.25 c 0.28729,-22.9625 0.6274,-43.55 0.7558,-45.75 0.18918,-3.24153 -2.20194,-9.49894 -12.61017,-33 C 257.50962,184.55 249.71087,166.775 247.24306,161 242.319,149.47703 205.55914,68.55274 203.98192,65.763569 201.17179,60.794118 198.0014,62.965305 255.5,30.482264 266.75166,24.125792 276.54213,19 277.43157,19 c 1.3699,0 2.95468,5.700173 7.00426,25.193007 7.181,34.566029 18.27148,87.058423 22.1434,104.806993 21.16681,97.02702 20.33564,89.29854 11.29989,105.07048 C 291.29802,300.46785 278.69541,321 276.79783,321 c -0.51703,0 -0.67255,-17.55602 -0.36985,-41.75 z M 245,314.03592 c -9.625,-3.23746 -29.65,-9.78061 -44.5,-14.54036 C 132.74619,277.77901 61.057447,253.77415 59.941791,252.42986 58.557744,250.76219 56.189475,246.70661 36.040655,211.5 28.1715,197.75 19.993153,183.60341 17.86655,180.06314 13.406231,172.63779 13.136008,170.705 16.25,168.50058 18.419637,166.96467 49.749636,149.05887 116,111.49118 133.325,101.66693 157.57455,87.862404 169.88788,80.814454 192.08478,68.109316 194,67.162721 194,68.897043 c 0,1.051812 -24.03647,34.713327 -46.14759,64.626687 -8.52778,11.53695 -23.5326,32.00127 -33.34404,45.47627 -9.81144,13.475 -19.614739,26.8573 -21.785101,29.73845 -4.512413,5.9902 -4.365096,7.56459 0.869474,9.29216 2.053021,0.67756 9.172027,4.39018 15.820007,8.25027 45.76846,26.57504 70.70012,41.21772 105.58725,62.01275 15.675,9.34334 33.9,20.12275 40.5,23.95426 6.6,3.83151 12.1875,7.14317 12.41667,7.35924 1.93099,1.8207 -8.42611,-0.69719 -22.91667,-5.57121 z"
         id="path45" />
      <path
         style="fill:#4c4c4c"
         d="M 239.5,311.50759 C 229.05,308.04258 204.975,300.17347 186,294.02068 80.788493,259.90507 62.544525,253.67998 60.129206,251.07187 57.842567,248.60271 50.118945,235.52409 29.968541,200 24.82091,190.925 19.347139,181.4994 17.804606,179.05422 16.262073,176.60904 15,173.58191 15,172.32727 c 0,-2.41324 0.08738,-2.48076 12,-9.27307 52.468322,-29.91623 69.425163,-39.57311 92,-52.39374 14.575,-8.27738 36.59203,-20.812192 48.92672,-27.855126 22.88945,-13.069543 24.72376,-13.942853 23.704,-11.285392 -0.6983,1.819755 -17.8896,25.797944 -40.02588,55.827548 -23.13359,31.38254 -32.7262,44.48674 -42.93513,58.65251 -4.95464,6.875 -11.407229,15.69006 -14.339077,19.58902 -6.710825,8.92449 -6.782328,10.61113 -0.580633,13.69602 2.6125,1.29953 11.5,6.32519 19.75,11.16814 8.25,4.84296 24.675,14.42565 36.5,21.29488 44.19622,25.6739 108.85091,63.95506 110.45,65.39593 1.86234,1.67808 -2.12931,0.60417 -20.95,-5.6364 z m 38.56231,-37.36429 0.16072,-43.85669 -3.51032,-8.39331 C 267.64027,204.98285 244.46504,152.65667 230.24859,121.5 198.86091,52.711023 201.3574,62.665563 213.75,55.713111 c 5.3625,-3.008449 17.175,-9.646476 26.25,-14.75117 43.20626,-24.303554 38.28067,-22.492338 39.9846,-14.702944 2.16461,9.895347 15.17699,71.256719 21.04518,99.241003 3.22932,15.4 8.16705,38.575 10.97273,51.5 2.80569,12.925 5.50515,25.525 5.99881,28 0.49365,2.475 2.28125,11.01789 3.97243,18.98419 2.64927,12.47936 2.90246,14.90163 1.82921,17.5 -2.61499,6.33102 -43.97349,76.48334 -45.10217,76.50235 -0.43956,0.007 -0.72688,-19.72205 -0.63848,-43.84324 z"
         id="path44" />
      <path
         style="fill:#3c3c3c"
         d="m 279.16343,274.25 c 0.22222,-47.49701 0.8643,-43.4494 -11.1439,-70.25 -4.31255,-9.625 -12.35459,-27.85 -17.8712,-40.5 C 244.63172,150.85 234.20699,127.675 226.98226,112 207.06281,68.782102 204.58681,63.005445 205.58901,62.088381 206.87723,60.909599 276.15666,22 276.96728,22 c 1.61353,0 3.45535,7.781641 16.09482,68 5.02171,23.925 11.5245,54.525 14.45064,68 19.07531,87.8426 18.2483,79.3642 9.24623,94.79143 C 301.626,278.72544 279.87347,315 279.45476,315 c -0.26509,0 -0.39619,-18.3375 -0.29133,-40.75 z M 233,308.31564 c -9.075,-2.999 -31.8,-10.42013 -50.5,-16.49142 -18.7,-6.07129 -43.28604,-14.09835 -54.63564,-17.83791 -11.34961,-3.73955 -31.180227,-10.23858 -44.068047,-14.44229 l -23.432401,-7.64309 -5.30457,-9.20047 C 10.834823,165.99564 14.34021,172.49992 16.089723,170.39189 c 0.721672,-0.86956 3.359213,-2.57804 5.861204,-3.79662 C 24.452917,165.37668 33.7,160.18328 42.5,155.05438 c 20.297943,-11.83025 30.164526,-17.48144 55,-31.50181 11,-6.20983 36.36037,-20.60167 56.35638,-31.981865 19.99602,-11.380199 36.5812,-20.466462 36.85596,-20.191697 0.53005,0.530047 -23.72234,34.491372 -47.21819,66.120992 -7.76271,10.45 -18.69811,25.3 -24.30089,33 -5.60277,7.7 -14.934,20.49343 -20.736047,28.42985 -13.842827,18.9351 -15.777548,15.39212 19.542787,35.78799 5.775,3.3348 26.475,15.41943 46,26.85473 19.525,11.4353 40.9,23.91387 47.5,27.73017 20.58999,11.90567 40.5,23.841 40.5,24.27827 0,0.85875 -2.90125,0.0547 -19,-5.26537 z"
         id="path43" />
      <path
         style="fill:#2a2a2a"
         d="m 59.659506,249.75 c -2.855708,-4.63388 -19.645067,-33.721 -26.695942,-46.25 -4.023763,-7.15 -9.47179,-16.60822 -12.106727,-21.01827 -5.592539,-9.36014 -5.544325,-11.35232 0.337551,-13.94739 2.224466,-0.98144 6.803237,-3.6633 10.175048,-5.9597 C 37.26669,158.55827 47.10367,152.89337 114,114.98949 c 16.775,-9.50482 40.31623,-22.887067 52.31384,-29.738322 11.99761,-6.851254 22.05885,-12.211807 22.35832,-11.91234 0.29947,0.299468 -3.64442,6.308241 -8.76419,13.352829 C 156.8562,118.4099 148.71596,129.52638 137.5,144.60484 c -6.6,8.87288 -15.825,21.43338 -20.5,27.91222 -4.675,6.47884 -13.36101,18.33864 -19.302243,26.35511 -8.586713,11.58599 -10.682722,15.0516 -10.219496,16.89724 0.435794,1.73634 -0.515057,3.76033 -3.770646,8.02622 -4.80642,6.29798 -15.327369,21.15341 -18.027365,25.45437 -2.09485,3.33699 -4.166382,3.50903 -6.020744,0.5 z M 319.6877,240.35437 c -0.7008,-0.7008 -22.38135,-2.53064 -32.35405,-2.73068 -3.3915,-0.068 -6.41686,-0.37405 -6.72302,-0.68004 -3.55844,-3.55643 -5.0247,-69.12668 -2.5927,-115.94365 0.52856,-10.175 0.9988,-34.194459 1.04497,-53.376575 0.0462,-19.182115 0.46635,-34.482115 0.93373,-34 C 280.464,34.105541 285.3744,55.875 290.90862,82 c 5.53423,26.125 12.08088,56.725 14.54813,68 13.65207,62.38817 18.67972,88.13064 17.49193,89.56184 -1.29816,1.56419 -2.25643,1.79708 -3.26098,0.79253 z"
         id="path42" />
      <path
         style="fill:#121212"
         d="M 57.754379,245.27159 C 55.902675,242.09722 50.405504,232.525 45.538446,224 33.741868,203.33745 22.808863,184.35782 20.048735,179.75 c -2.757729,-4.60381 -2.267401,-4.64797 4.281797,-0.38557 2.843208,1.85043 9.894468,5.97209 15.669468,9.15923 5.775,3.18714 15.9,9.03898 22.5,13.00409 6.6,3.96512 14.475,8.51391 17.5,10.10844 7.397731,3.89947 7.331912,4.15289 -5.868054,22.59422 -13.572709,18.96208 -12.269554,18.08354 -16.377567,11.04118 z m 260.129811,-6.72074 c -0.24703,-0.24703 -4.48453,-0.66795 -9.41667,-0.93538 -20.26676,-1.09889 -26.41941,-1.85258 -27.69831,-3.39299 -1.92275,-2.31592 -0.96866,-192.755263 0.95605,-190.830556 0.21992,0.219925 1.24769,4.384211 2.28393,9.253969 1.03624,4.869759 5.50693,25.954107 9.93488,46.854107 4.42795,20.9 9.84371,46.1 12.03503,56 6.23532,28.17011 17.0209,80.0406 17.0209,81.85766 0,1.50568 -3.89489,2.41411 -5.11581,1.19319 z"
         id="path41" />
    </g>
  </g>
</svg>
